<svg width="18" height="24" viewBox="0 0 18 24" fill="none" xmlns="http://www.w3.org/2000/svg">
<path fill-rule="evenodd" clip-rule="evenodd" d="M3 3.75C0.6 3.75 0 6.25 0 7.5V23.25H18V7.5C18 5.625 17.25 3.75 15 3.75H3ZM1.5 8.25V21.75H16.5V7.5C16.5 6.72476 16.339 6.11888 16.0957 5.75393C15.9099 5.47525 15.6321 5.25 15 5.25H3C2.44402 5.25 2.14046 5.48712 1.8998 5.90493C1.75311 6.1596 1.65121 6.45898 1.58701 6.75H11.25V8.25H1.5Z" fill="black"/>
<path fill-rule="evenodd" clip-rule="evenodd" d="M3 4.5V0H15V4.5H3ZM4.5 3.75V0.75H6V3.75H4.5ZM6.75 0.75V3.75H8.25V0.75H6.75ZM9.75 3.75V0.75H11.25V3.75H9.75ZM12 0.75V3.75H13.5V0.75H12Z" fill="black"/>
<path d="M0.75 10.5L17.25 10.5V9L0.75 9V10.5Z" fill="black"/>
<path fill-rule="evenodd" clip-rule="evenodd" d="M9.71156 13.9209C8.86347 13.9622 7.97239 14.2077 7.23025 14.8261C6.51777 15.4199 6.13512 16.3184 5.97069 17.2823C5.91822 17.5899 5.88967 17.895 5.87867 18.1857L8.09479 15.9696L9.15545 17.0303L6.90861 19.2771C7.16682 19.2739 7.43986 19.2577 7.71998 19.2241C8.67324 19.1096 9.64292 18.8004 10.3949 18.1738C11.1004 17.5859 11.4175 16.7626 11.5072 15.9062C11.5781 15.2294 11.5009 14.5737 11.3881 14.0929C10.9598 13.98 10.3631 13.8892 9.71156 13.9209ZM9.63859 12.4227C10.7085 12.3706 11.6728 12.5763 12.2634 12.7977L12.5984 12.9234L12.7115 13.2628C12.9282 13.9127 13.1148 14.958 12.999 16.0625C12.8825 17.1749 12.4496 18.4141 11.3551 19.3262C10.3071 20.1995 9.0268 20.5779 7.89886 20.7134C6.7704 20.8489 5.7289 20.7497 5.0874 20.6071L4.61049 20.5011L4.51468 20.022C4.37388 19.318 4.29356 18.1936 4.49205 17.0301C4.69011 15.869 5.18246 14.5801 6.26998 13.6738C7.32784 12.7922 8.56172 12.4752 9.63859 12.4227Z" fill="black"/>
</svg>
