<svg width="32" height="31" viewBox="0 0 32 31" fill="none" xmlns="http://www.w3.org/2000/svg">
<g clip-path="url(#clip0_25_1538)" filter="url(#filter0_d_25_1538)">
<path d="M6 8.50806L4 8.50807V7.50807L6 7.50806V5.50806L9 8.00806L6 10.5081V8.50806Z" fill="black" fill-opacity="0.87"/>
<path d="M26 7.50806L28 7.50805L28 8.50805L26 8.50806L26 10.5081L23 8.00806L26 5.50806L26 7.50806Z" fill="black" fill-opacity="0.87"/>
<path fill-rule="evenodd" clip-rule="evenodd" d="M21.0001 7.04848C21.0001 4.7499 21.3295 3.2514 21.4731 2.83215L20.5271 2.50805C20.3374 3.06177 20.0001 4.67679 20.0001 7.04848C20.0001 8.61102 20.5343 10.1491 21.0961 11.6067C21.1784 11.8203 21.2612 12.0321 21.3435 12.2422C21.6064 12.9145 21.863 13.5703 22.076 14.2183C20.9884 14.3391 18.0584 14.647 16.2501 14.6702C14.1803 14.6967 11.2128 14.375 10.0229 14.2343C10.2149 13.6638 10.4345 13.0869 10.6585 12.4984C10.7407 12.2825 10.8235 12.065 10.9058 11.8456C11.4677 10.3472 12.0001 8.77044 12.0001 7.17007C12.0001 4.73459 11.663 3.07778 11.4744 2.51196L10.5258 2.82818C10.6705 3.26236 11.0001 4.80555 11.0001 7.17007C11.0001 8.5697 10.5325 9.99294 9.96943 11.4945C9.89099 11.7037 9.81056 11.9147 9.72953 12.1272C9.24058 13.4097 8.73012 14.7486 8.5069 16.0879C8.10279 18.5125 8.0001 20.4734 8.0001 21.1701H9.0001C9.0001 20.5334 9.0974 18.6276 9.49329 16.2523C9.52262 16.0763 9.55733 15.9003 9.59672 15.7242L16.0001 21.6702L22.5372 16.0669C22.9079 18.294 23.0001 20.0682 23.0001 20.6701H24.0001C24.0001 19.9906 23.8972 18.0812 23.4929 15.7208C23.2692 14.415 22.7578 13.1098 22.2689 11.8622C22.1879 11.6556 22.1074 11.4502 22.0291 11.247C21.4659 9.78568 21.0001 8.40486 21.0001 7.04848ZM16.0001 12.6702C16.2762 12.6702 16.5001 12.4463 16.5001 12.1702C16.5001 11.894 16.2762 11.6702 16.0001 11.6702C15.724 11.6702 15.5001 11.894 15.5001 12.1702C15.5001 12.4463 15.724 12.6702 16.0001 12.6702Z" fill="black" fill-opacity="0.87"/>
<path fill-rule="evenodd" clip-rule="evenodd" d="M21.9812 2.58338L21.8515 2.96179C21.7263 3.32726 21.4001 4.77914 21.4001 7.04848C21.4001 8.32232 21.8385 9.64012 22.4024 11.1032C22.4802 11.3051 22.5601 11.509 22.6411 11.7158L22.6489 11.7357C23.1327 12.9702 23.6566 14.3071 23.8872 15.6533C24.295 18.0339 24.4001 19.966 24.4001 20.6701V21.0701H22.6001V20.6701C22.6001 20.1554 22.5286 18.7083 22.2531 16.8372L15.9894 22.2061L9.85619 16.511C9.49009 18.7762 9.4001 20.5742 9.4001 21.1701V21.5701H7.6001V21.1701C7.6001 20.4494 7.70495 18.4665 8.11234 16.0221C8.34214 14.6433 8.86443 13.2734 9.34849 12.0038L9.35267 11.9929L9.35562 11.9851C9.43671 11.7724 9.51691 11.562 9.5949 11.3541C10.1585 9.85107 10.6001 8.48933 10.6001 7.17007C10.6001 4.83393 10.2735 3.33619 10.1463 2.95467L10.0198 2.5752L11.7274 2.00599L11.8539 2.38546C12.0601 3.00394 12.4001 4.70621 12.4001 7.17007C12.4001 8.85066 11.8418 10.4887 11.2803 11.9861C11.1977 12.2065 11.1145 12.4249 11.0324 12.6406C10.8699 13.0675 10.7115 13.4837 10.5647 13.894C11.9488 14.0488 14.4474 14.2932 16.245 14.2702C17.8041 14.2502 20.2211 14.0148 21.5354 13.8748C21.3631 13.3906 21.1706 12.8982 20.9715 12.3894L20.971 12.388C20.8888 12.178 20.8056 11.9653 20.7228 11.7505C20.1616 10.2943 19.6001 8.69341 19.6001 7.04848C19.6001 4.64754 19.9406 2.98591 20.1487 2.37841L20.2783 2L21.9812 2.58338ZM21.3435 12.2422C21.5541 12.7807 21.7606 13.3087 21.944 13.8305C21.9895 13.9601 22.0336 14.0894 22.076 14.2183C21.9602 14.2312 21.8234 14.2462 21.6693 14.2627C20.3769 14.4015 17.8658 14.6495 16.2501 14.6702C14.3867 14.694 11.7958 14.4357 10.4293 14.2812C10.2779 14.2641 10.1415 14.2483 10.0229 14.2343C10.0662 14.1056 10.1109 13.9766 10.1567 13.8473C10.3142 13.403 10.485 12.9542 10.6585 12.4984C10.7407 12.2825 10.8235 12.065 10.9058 11.8456C11.4677 10.3472 12.0001 8.77044 12.0001 7.17007C12.0001 5.15223 11.7687 3.66889 11.5821 2.8977C11.5435 2.73809 11.5068 2.60898 11.4744 2.51196L10.5258 2.82818C10.6705 3.26236 11.0001 4.80555 11.0001 7.17007C11.0001 8.5697 10.5325 9.99294 9.96943 11.4945C9.89099 11.7037 9.81056 11.9147 9.72953 12.1272C9.24058 13.4097 8.73012 14.7486 8.5069 16.0879C8.1639 18.1459 8.03805 19.8698 8.00783 20.7701C8.00245 20.9305 8.0001 21.0647 8.0001 21.1701H9.0001C9.0001 20.5334 9.0974 18.6276 9.49329 16.2523C9.49705 16.2297 9.50089 16.2072 9.50482 16.1847C9.53159 16.0312 9.56237 15.8778 9.59672 15.7242L16.0001 21.6702L22.5372 16.0669C22.5633 16.2237 22.588 16.3782 22.6114 16.5302C22.9204 18.5379 23.0001 20.1105 23.0001 20.6701H24.0001C24.0001 20.5652 23.9976 20.4309 23.992 20.2701C23.9611 19.39 23.8348 17.7166 23.4929 15.7208C23.2692 14.415 22.7578 13.1098 22.2689 11.8622C22.1879 11.6556 22.1074 11.4502 22.0291 11.247C21.4659 9.78568 21.0001 8.40486 21.0001 7.04848C21.0001 4.7499 21.3295 3.2514 21.4731 2.83215L20.5271 2.50805C20.494 2.60465 20.4564 2.73354 20.4169 2.89312C20.23 3.64829 20.0001 5.09054 20.0001 7.04848C20.0001 8.61102 20.5343 10.1491 21.0961 11.6067C21.1784 11.8203 21.2612 12.0321 21.3435 12.2422ZM16.9001 12.1702C16.9001 12.6672 16.4972 13.0702 16.0001 13.0702C15.503 13.0702 15.1001 12.6672 15.1001 12.1702C15.1001 11.6731 15.503 11.2702 16.0001 11.2702C16.4972 11.2702 16.9001 11.6731 16.9001 12.1702ZM16.5001 12.1702C16.5001 12.4463 16.2762 12.6702 16.0001 12.6702C15.724 12.6702 15.5001 12.4463 15.5001 12.1702C15.5001 11.894 15.724 11.6702 16.0001 11.6702C16.2762 11.6702 16.5001 11.894 16.5001 12.1702Z" fill="black" fill-opacity="0.87"/>
<path d="M16.5 16C14.9 16 11.8333 15.6667 10.5 15.5L16 20.5L22 15.5C20.8333 15.6667 18.1 16 16.5 16Z" fill="white"/>
</g>
<defs>
<filter id="filter0_d_25_1538" x="0" y="0.0976562" width="32" height="32" filterUnits="userSpaceOnUse" color-interpolation-filters="sRGB">
<feFlood flood-opacity="0" result="BackgroundImageFix"/>
<feColorMatrix in="SourceAlpha" type="matrix" values="0 0 0 0 0 0 0 0 0 0 0 0 0 0 0 0 0 0 127 0" result="hardAlpha"/>
<feOffset dy="4"/>
<feGaussianBlur stdDeviation="2"/>
<feComposite in2="hardAlpha" operator="out"/>
<feColorMatrix type="matrix" values="0 0 0 0 0 0 0 0 0 0 0 0 0 0 0 0 0 0 0.25 0"/>
<feBlend mode="normal" in2="BackgroundImageFix" result="effect1_dropShadow_25_1538"/>
<feBlend mode="normal" in="SourceGraphic" in2="effect1_dropShadow_25_1538" result="shape"/>
</filter>
<clipPath id="clip0_25_1538">
<rect width="24" height="24" fill="white" transform="translate(4 0.0976562)"/>
</clipPath>
</defs>
</svg>
